<svg width="287" height="256" viewBox="0 0 287 256" fill="none" xmlns="http://www.w3.org/2000/svg">
<path d="M136.899 53.58C124.788 54.972 113.193 60.54 104.009 69.472C95.7432 77.534 89.8884 87.974 87.4776 99.168C86.1574 105.316 86.1574 116.684 87.4776 122.89C91.2086 140.348 103.722 156.124 119.679 163.49C134.66 170.392 151.995 170.45 166.919 163.664C178.916 158.27 190.281 146.786 195.734 134.606C201.015 122.774 202.048 108.1 198.547 95.34C193.094 75.33 175.414 58.626 155.554 54.566C149.986 53.406 141.95 53 136.899 53.58ZM147.748 79.97C156.071 82.174 163.36 89.308 166.001 97.776C167.378 102.474 167.321 104.156 165.599 105.78C164.795 106.534 164.164 107.404 164.164 107.694C164.164 107.984 165.082 109.782 166.23 111.638C167.321 113.494 168.125 115.292 167.952 115.582C167.723 115.872 166.804 116.336 165.829 116.51C164.049 116.916 163.992 117.264 164.968 119.758C165.255 120.396 164.91 120.86 163.82 121.324C162.729 121.846 162.442 122.31 162.729 123.064C164.566 127.646 164.279 129.85 161.753 130.43C161.007 130.604 156.071 129.734 150.675 128.458C142.065 126.486 139.367 126.138 140.228 127.066C140.4 127.182 142.18 127.704 144.131 128.168C146.14 128.632 148.092 129.096 148.436 129.212C149.068 129.444 148.322 134.49 146.657 141.566C146.37 142.9 146.198 142.9 137.243 142.9H128.174L127.83 137.506C127.371 130.72 125.362 123.238 121.975 115.582C116.809 104.04 117.727 94.76 124.845 86.756C130.528 80.434 139.367 77.766 147.748 79.97Z" fill="#3C520A"/>
<path d="M138.908 85.48C138.908 86.64 138.621 87.22 138.047 87.22C137.53 87.22 136.325 87.626 135.407 88.148C133.799 88.96 133.57 88.96 132.651 88.148C131.274 86.872 130.757 86.988 128.863 88.96C127.256 90.642 127.256 90.7 128.289 91.86C129.265 92.962 129.265 93.078 128.174 95.746C127.313 98.008 126.739 98.588 125.534 98.704C124.099 98.878 123.984 99.11 123.984 101.488C123.984 103.866 124.099 104.04 125.591 104.04C126.854 104.04 127.313 104.446 128.174 106.534C129.38 109.55 129.38 109.782 128.174 111.116C127.256 112.16 127.313 112.276 129.035 114.074L130.872 115.93L132.077 114.712L133.283 113.494L136.095 114.654C138.506 115.698 138.908 116.104 138.908 117.496C138.908 119.062 139.023 119.12 141.491 119.12C143.902 119.12 144.074 119.004 144.074 117.496C144.074 116.162 144.533 115.756 146.887 114.712L149.699 113.436L150.905 114.654L152.11 115.872L153.832 114.19C155.784 112.334 155.898 111.754 154.693 110.42C154.004 109.608 154.004 109.202 154.865 106.766C155.726 104.388 156.071 104.04 157.391 104.04C158.883 104.04 158.998 103.866 158.998 101.488C158.998 99.11 158.883 98.878 157.506 98.704C156.358 98.588 155.784 97.892 154.865 95.746C153.717 93.078 153.717 92.962 154.75 91.802C155.726 90.7 155.726 90.584 153.947 88.844C152.225 87.046 152.11 87.046 151.019 88.032C149.871 89.076 149.757 89.076 147.116 87.916C144.992 86.988 144.304 86.408 144.189 85.248C144.017 83.856 143.787 83.74 141.434 83.74C139.023 83.74 138.908 83.798 138.908 85.48ZM142.926 86.06C142.926 87.104 143.213 87.8 143.672 87.8C144.131 87.8 145.624 88.438 147.116 89.134L149.757 90.526L150.905 89.308C152.053 88.206 152.11 88.206 153.258 89.25L154.406 90.294L153.201 91.628C152.225 92.672 152.11 93.136 152.627 93.774C152.971 94.238 153.602 95.63 154.062 96.848C154.636 98.646 155.152 99.168 156.472 99.4C157.793 99.632 158.137 99.98 158.137 101.14C158.137 102.242 157.793 102.648 156.53 102.88C155.267 103.112 154.693 103.634 154.176 105.2C153.775 106.302 153.201 107.752 152.856 108.39C152.282 109.318 152.397 109.782 153.315 110.768C154.406 111.928 154.406 111.986 153.258 113.03C152.225 114.016 152.053 114.016 151.077 113.146C150.101 112.276 149.814 112.276 146.657 113.61C143.844 114.712 143.156 115.292 143.041 116.452C142.869 117.612 142.524 117.96 141.434 117.96C140.343 117.96 140.056 117.67 140.056 116.51C140.056 115.582 139.654 114.886 139.08 114.654C138.506 114.48 136.956 113.842 135.579 113.204C133.225 112.102 133.053 112.102 132.02 113.03C131.102 113.9 130.757 113.9 130.011 113.32C129.093 112.508 128.863 111 129.667 111C130.757 111 130.757 109.26 129.724 107.114C129.093 105.896 128.519 104.446 128.346 103.866C128.174 103.286 127.485 102.88 126.567 102.88C125.362 102.88 125.132 102.59 125.132 101.14C125.132 99.574 125.304 99.4 126.854 99.4C128.117 99.4 128.576 99.11 128.576 98.356C128.576 97.834 129.093 96.326 129.781 95.108C130.815 93.078 130.872 92.788 130.068 91.918C128.92 90.642 128.92 89.888 130.068 88.96C130.815 88.322 131.102 88.38 132.077 89.366L133.225 90.526L135.866 89.134C137.358 88.438 138.851 87.8 139.31 87.8C139.769 87.8 140.056 87.104 140.056 86.06C140.056 84.61 140.286 84.32 141.491 84.32C142.696 84.32 142.926 84.61 142.926 86.06Z" fill="#3C520A"/>
<path d="M136.669 92.208C132.364 94.47 130.183 101.43 132.422 105.722C134.603 109.956 139.195 112.218 143.787 111.348C146.255 110.884 149.699 107.926 150.732 105.374C152.512 101.082 151.019 95.572 147.403 92.962C144.935 91.164 139.482 90.816 136.669 92.208ZM146.083 93.542C151.88 96.848 151.823 105.722 146.026 109.086C138.334 113.552 129.552 105.084 133.627 97.138C135.981 92.44 141.376 90.874 146.083 93.542Z" fill="#3C520A"/>
<path d="M54.1515 184.273H54.7608L56.8105 188.483H56.8787L60.3262 184.273H60.9696L57.0321 189.041L56.3801 193H55.8432L56.4995 189.041L54.1515 184.273ZM62.4963 193.136C61.9508 193.136 61.4892 192.99 61.1113 192.697C60.7363 192.402 60.4693 191.996 60.3102 191.479C60.1511 190.962 60.127 190.371 60.2377 189.706C60.3457 189.058 60.5588 188.483 60.877 187.98C61.198 187.474 61.59 187.078 62.0531 186.791C62.5162 186.501 63.0133 186.357 63.5446 186.357C64.0929 186.357 64.5545 186.506 64.9295 186.804C65.3074 187.099 65.5758 187.507 65.7349 188.027C65.894 188.544 65.921 189.134 65.8159 189.795C65.7079 190.44 65.492 191.016 65.1681 191.521C64.8471 192.024 64.4551 192.419 63.992 192.706C63.5289 192.993 63.0304 193.136 62.4963 193.136ZM62.5048 192.655C62.9707 192.655 63.3997 192.524 63.7917 192.263C64.1838 192.001 64.5119 191.648 64.7761 191.202C65.0431 190.756 65.2207 190.257 65.3088 189.706C65.3968 189.172 65.3841 188.689 65.2704 188.257C65.1568 187.822 64.9537 187.479 64.661 187.226C64.3684 186.97 63.9977 186.842 63.5488 186.842C63.0858 186.842 62.6568 186.974 62.2619 187.239C61.8699 187.503 61.5403 187.858 61.2733 188.304C61.0062 188.75 60.8287 189.247 60.7406 189.795C60.6497 190.327 60.661 190.81 60.7747 191.244C60.8912 191.676 61.0957 192.02 61.3883 192.276C61.6838 192.528 62.0559 192.655 62.5048 192.655ZM71.6507 190.678L72.3539 186.455H72.8738L71.7828 193H71.263L71.4419 191.939H71.3951C71.1905 192.277 70.8979 192.553 70.5172 192.766C70.1365 192.979 69.7132 193.085 69.2473 193.085C68.8184 193.085 68.4547 192.991 68.1564 192.804C67.8581 192.616 67.6436 192.351 67.513 192.007C67.3851 191.661 67.361 191.249 67.4405 190.771L68.1607 186.455H68.6806L67.9647 190.75C67.8766 191.295 67.9703 191.737 68.2459 192.075C68.5215 192.411 68.9221 192.578 69.4476 192.578C69.7885 192.578 70.1138 192.501 70.4235 192.348C70.736 192.195 71.0016 191.976 71.2203 191.692C71.4419 191.405 71.5854 191.067 71.6507 190.678ZM73.937 193L75.0279 186.455H75.535L75.3645 187.477H75.4114C75.6046 187.142 75.8887 186.874 76.2637 186.672C76.6387 186.467 77.0421 186.365 77.4739 186.365C77.5222 186.365 77.5676 186.365 77.6103 186.365C77.6529 186.365 77.6955 186.366 77.7381 186.369L77.6486 186.893C77.6145 186.891 77.5733 186.886 77.525 186.881C77.4796 186.872 77.4228 186.868 77.3546 186.868C76.9909 186.868 76.6543 186.946 76.3446 187.102C76.035 187.259 75.7765 187.474 75.5691 187.75C75.3617 188.023 75.2296 188.335 75.1728 188.688L74.4569 193H73.937ZM81.585 193L83.0339 184.273H85.8677C86.3961 184.273 86.8265 184.366 87.1589 184.554C87.4941 184.741 87.7271 185.004 87.8578 185.342C87.9885 185.68 88.0154 186.074 87.9387 186.523C87.8791 186.875 87.7697 187.187 87.6106 187.46C87.4544 187.73 87.2598 187.955 87.0268 188.134C86.7939 188.31 86.5368 188.433 86.2555 188.504L86.2512 188.555C86.5467 188.581 86.8081 188.688 87.0353 188.875C87.2626 189.06 87.4288 189.311 87.5339 189.629C87.6419 189.947 87.6603 190.317 87.5893 190.737C87.5154 191.183 87.3535 191.577 87.1035 191.918C86.8535 192.256 86.5225 192.521 86.1106 192.714C85.6987 192.905 85.2115 193 84.649 193H81.585ZM82.2029 192.506H84.7342C85.3904 192.506 85.9217 192.341 86.3279 192.011C86.7342 191.682 86.9828 191.257 87.0737 190.737C87.1333 190.371 87.1007 190.043 86.9757 189.753C86.8535 189.463 86.6532 189.234 86.3748 189.067C86.0993 188.896 85.7626 188.811 85.3649 188.811H82.8166L82.2029 192.506ZM82.9018 188.325H85.3862C85.7527 188.325 86.0794 188.244 86.3663 188.082C86.6532 187.92 86.8876 187.703 87.0694 187.43C87.2512 187.158 87.3677 186.855 87.4189 186.523C87.5098 185.98 87.4146 185.553 87.1333 185.24C86.8521 184.925 86.4018 184.767 85.7825 184.767H83.4814L82.9018 188.325ZM89.1245 193L90.2154 186.455H90.7225L90.552 187.477H90.5989C90.7921 187.142 91.0762 186.874 91.4512 186.672C91.8262 186.467 92.2296 186.365 92.6614 186.365C92.7097 186.365 92.7551 186.365 92.7978 186.365C92.8404 186.365 92.883 186.366 92.9256 186.369L92.8361 186.893C92.802 186.891 92.7608 186.886 92.7125 186.881C92.6671 186.872 92.6103 186.868 92.5421 186.868C92.1784 186.868 91.8418 186.946 91.5321 187.102C91.2225 187.259 90.964 187.474 90.7566 187.75C90.5492 188.023 90.4171 188.335 90.3603 188.688L89.6444 193H89.1245ZM94.9316 193.141C94.5538 193.141 94.22 193.065 93.9302 192.915C93.6433 192.764 93.4288 192.544 93.2868 192.254C93.1447 191.964 93.1064 191.612 93.1717 191.197C93.22 190.925 93.3095 190.685 93.4402 190.477C93.5708 190.27 93.7498 190.091 93.9771 189.94C94.2044 189.79 94.4828 189.666 94.8123 189.57C95.1447 189.47 95.5325 189.393 95.9757 189.339C96.3166 189.3 96.6206 189.26 96.8876 189.22C97.1547 189.18 97.3706 189.119 97.5353 189.037C97.7001 188.955 97.7967 188.831 97.8251 188.666L97.8677 188.393C97.9473 187.919 97.8663 187.541 97.6248 187.26C97.3833 186.976 96.9984 186.834 96.47 186.834C96.0041 186.834 95.5865 186.939 95.2172 187.149C94.8478 187.357 94.5723 187.619 94.3904 187.938L93.9387 187.754C94.1149 187.442 94.3379 187.182 94.6078 186.974C94.8805 186.767 95.1788 186.612 95.5027 186.51C95.8294 186.408 96.1618 186.357 96.4998 186.357C96.7924 186.357 97.0652 186.398 97.318 186.48C97.5708 186.562 97.7868 186.688 97.9657 186.855C98.1475 187.023 98.2768 187.237 98.3535 187.499C98.4331 187.757 98.4416 188.067 98.3791 188.428L97.6206 193H97.1007L97.301 191.82H97.2626C97.1092 192.064 96.916 192.287 96.6831 192.489C96.4529 192.688 96.1902 192.847 95.8947 192.966C95.5993 193.082 95.2782 193.141 94.9316 193.141ZM95.0297 192.659C95.4387 192.659 95.8194 192.56 96.1717 192.361C96.5268 192.159 96.8251 191.884 97.0666 191.534C97.3109 191.185 97.4686 190.788 97.5396 190.345L97.7058 189.382C97.6291 189.439 97.5254 189.49 97.3947 189.536C97.264 189.578 97.1177 189.616 96.9558 189.651C96.7967 189.682 96.6305 189.71 96.4572 189.736C96.2868 189.759 96.1206 189.78 95.9586 189.8C95.4728 189.857 95.0708 189.945 94.7527 190.064C94.4345 190.18 94.1887 190.334 94.0154 190.524C93.845 190.714 93.7356 190.945 93.6873 191.214C93.6163 191.661 93.7072 192.013 93.96 192.271C94.2157 192.53 94.5723 192.659 95.0297 192.659ZM99.8258 193L100.917 186.455H101.432L100.341 193H99.8258ZM101.42 185.291C101.297 185.291 101.195 185.25 101.113 185.168C101.033 185.082 100.999 184.979 101.01 184.857C101.016 184.754 101.062 184.665 101.147 184.588C101.232 184.511 101.33 184.473 101.441 184.473C101.563 184.473 101.664 184.516 101.743 184.601C101.823 184.683 101.858 184.784 101.85 184.903C101.841 185.009 101.795 185.099 101.709 185.176C101.627 185.253 101.53 185.291 101.42 185.291ZM103.742 188.756L103.039 193H102.519L103.61 186.455H104.117L103.947 187.49H103.998C104.202 187.152 104.492 186.881 104.867 186.676C105.242 186.472 105.662 186.369 106.128 186.369C106.566 186.369 106.937 186.463 107.241 186.651C107.545 186.838 107.762 187.105 107.893 187.452C108.023 187.795 108.049 188.206 107.969 188.683L107.249 193H106.729L107.445 188.705C107.536 188.148 107.448 187.7 107.181 187.362C106.917 187.021 106.513 186.851 105.971 186.851C105.604 186.851 105.263 186.93 104.948 187.089C104.635 187.249 104.373 187.472 104.16 187.759C103.947 188.043 103.807 188.375 103.742 188.756ZM109.947 193.055C109.816 193.055 109.709 193.011 109.627 192.923C109.545 192.832 109.505 192.723 109.508 192.595C109.513 192.47 109.563 192.364 109.657 192.276C109.753 192.187 109.864 192.143 109.989 192.143C110.117 192.143 110.224 192.189 110.309 192.28C110.397 192.368 110.437 192.473 110.428 192.595C110.422 192.68 110.397 192.759 110.351 192.83C110.309 192.901 110.251 192.956 110.177 192.996C110.106 193.036 110.029 193.055 109.947 193.055ZM116.659 184.273H117.269L119.318 188.483H119.387L122.834 184.273H123.477L119.54 189.041L118.888 193H118.351L119.007 189.041L116.659 184.273ZM125.004 193.136C124.459 193.136 123.997 192.99 123.619 192.697C123.244 192.402 122.977 191.996 122.818 191.479C122.659 190.962 122.635 190.371 122.746 189.706C122.854 189.058 123.067 188.483 123.385 187.98C123.706 187.474 124.098 187.078 124.561 186.791C125.024 186.501 125.521 186.357 126.052 186.357C126.601 186.357 127.062 186.506 127.437 186.804C127.815 187.099 128.084 187.507 128.243 188.027C128.402 188.544 128.429 189.134 128.324 189.795C128.216 190.44 128 191.016 127.676 191.521C127.355 192.024 126.963 192.419 126.5 192.706C126.037 192.993 125.538 193.136 125.004 193.136ZM125.013 192.655C125.479 192.655 125.907 192.524 126.3 192.263C126.692 192.001 127.02 191.648 127.284 191.202C127.551 190.756 127.729 190.257 127.817 189.706C127.905 189.172 127.892 188.689 127.778 188.257C127.665 187.822 127.461 187.479 127.169 187.226C126.876 186.97 126.506 186.842 126.057 186.842C125.594 186.842 125.165 186.974 124.77 187.239C124.378 187.503 124.048 187.858 123.781 188.304C123.514 188.75 123.336 189.247 123.248 189.795C123.157 190.327 123.169 190.81 123.282 191.244C123.399 191.676 123.604 192.02 123.896 192.276C124.192 192.528 124.564 192.655 125.013 192.655ZM134.159 190.678L134.862 186.455H135.382L134.291 193H133.771L133.95 191.939H133.903C133.698 192.277 133.406 192.553 133.025 192.766C132.644 192.979 132.221 193.085 131.755 193.085C131.326 193.085 130.963 192.991 130.664 192.804C130.366 192.616 130.151 192.351 130.021 192.007C129.893 191.661 129.869 191.249 129.948 190.771L130.669 186.455H131.188L130.472 190.75C130.384 191.295 130.478 191.737 130.754 192.075C131.029 192.411 131.43 192.578 131.955 192.578C132.296 192.578 132.622 192.501 132.931 192.348C133.244 192.195 133.509 191.976 133.728 191.692C133.95 191.405 134.093 191.067 134.159 190.678ZM136.445 193L137.536 186.455H138.043L137.872 187.477H137.919C138.112 187.142 138.396 186.874 138.771 186.672C139.146 186.467 139.55 186.365 139.982 186.365C140.03 186.365 140.075 186.365 140.118 186.365C140.161 186.365 140.203 186.366 140.246 186.369L140.156 186.893C140.122 186.891 140.081 186.886 140.033 186.881C139.987 186.872 139.931 186.868 139.862 186.868C139.499 186.868 139.162 186.946 138.852 187.102C138.543 187.259 138.284 187.474 138.077 187.75C137.869 188.023 137.737 188.335 137.681 188.688L136.965 193H136.445ZM151.184 187C151.17 186.699 151.111 186.409 151.009 186.131C150.907 185.852 150.756 185.604 150.557 185.385C150.358 185.163 150.107 184.989 149.803 184.861C149.502 184.73 149.144 184.665 148.729 184.665C148.164 184.665 147.614 184.818 147.08 185.125C146.549 185.432 146.087 185.881 145.695 186.472C145.306 187.062 145.039 187.784 144.894 188.636C144.758 189.452 144.769 190.156 144.928 190.75C145.09 191.344 145.383 191.803 145.806 192.126C146.229 192.447 146.765 192.608 147.412 192.608C147.978 192.608 148.505 192.474 148.993 192.207C149.485 191.94 149.898 191.561 150.233 191.07C150.569 190.575 150.789 189.99 150.894 189.314L151.064 189.403H148.099L148.188 188.909H151.491L151.401 189.403C151.276 190.173 151.019 190.837 150.63 191.393C150.243 191.947 149.766 192.374 149.198 192.672C148.633 192.97 148.016 193.119 147.349 193.119C146.599 193.119 145.975 192.935 145.478 192.565C144.981 192.193 144.634 191.67 144.438 190.997C144.242 190.324 144.219 189.537 144.37 188.636C144.481 187.96 144.67 187.348 144.937 186.8C145.206 186.249 145.536 185.776 145.925 185.381C146.317 184.986 146.756 184.683 147.242 184.473C147.728 184.26 148.242 184.153 148.785 184.153C149.285 184.153 149.718 184.236 150.084 184.401C150.454 184.562 150.759 184.781 151.001 185.057C151.245 185.33 151.427 185.635 151.546 185.973C151.668 186.308 151.729 186.651 151.729 187H151.184ZM154.51 193.141C154.132 193.141 153.798 193.065 153.508 192.915C153.221 192.764 153.007 192.544 152.865 192.254C152.723 191.964 152.684 191.612 152.75 191.197C152.798 190.925 152.888 190.685 153.018 190.477C153.149 190.27 153.328 190.091 153.555 189.94C153.782 189.79 154.061 189.666 154.39 189.57C154.723 189.47 155.111 189.393 155.554 189.339C155.895 189.3 156.199 189.26 156.466 189.22C156.733 189.18 156.949 189.119 157.113 189.037C157.278 188.955 157.375 188.831 157.403 188.666L157.446 188.393C157.525 187.919 157.444 187.541 157.203 187.26C156.961 186.976 156.577 186.834 156.048 186.834C155.582 186.834 155.165 186.939 154.795 187.149C154.426 187.357 154.15 187.619 153.969 187.938L153.517 187.754C153.693 187.442 153.916 187.182 154.186 186.974C154.459 186.767 154.757 186.612 155.081 186.51C155.407 186.408 155.74 186.357 156.078 186.357C156.371 186.357 156.643 186.398 156.896 186.48C157.149 186.562 157.365 186.688 157.544 186.855C157.726 187.023 157.855 187.237 157.932 187.499C158.011 187.757 158.02 188.067 157.957 188.428L157.199 193H156.679L156.879 191.82H156.841C156.687 192.064 156.494 192.287 156.261 192.489C156.031 192.688 155.768 192.847 155.473 192.966C155.177 193.082 154.856 193.141 154.51 193.141ZM154.608 192.659C155.017 192.659 155.398 192.56 155.75 192.361C156.105 192.159 156.403 191.884 156.645 191.534C156.889 191.185 157.047 190.788 157.118 190.345L157.284 189.382C157.207 189.439 157.104 189.49 156.973 189.536C156.842 189.578 156.696 189.616 156.534 189.651C156.375 189.682 156.209 189.71 156.035 189.736C155.865 189.759 155.699 189.78 155.537 189.8C155.051 189.857 154.649 189.945 154.331 190.064C154.013 190.18 153.767 190.334 153.594 190.524C153.423 190.714 153.314 190.945 153.265 191.214C153.194 191.661 153.285 192.013 153.538 192.271C153.794 192.53 154.15 192.659 154.608 192.659ZM159.378 193L160.469 186.455H160.976L160.806 187.443H160.857C161.042 187.116 161.303 186.857 161.641 186.663C161.982 186.467 162.368 186.369 162.8 186.369C163.272 186.369 163.634 186.483 163.887 186.71C164.14 186.937 164.3 187.246 164.368 187.635H164.415C164.603 187.249 164.881 186.942 165.251 186.714C165.623 186.484 166.052 186.369 166.537 186.369C167.168 186.369 167.617 186.57 167.884 186.97C168.154 187.368 168.231 187.913 168.114 188.607L167.381 193H166.861L167.594 188.607C167.682 188.058 167.626 187.629 167.424 187.32C167.222 187.007 166.868 186.851 166.363 186.851C165.823 186.851 165.377 187.02 165.025 187.358C164.672 187.696 164.454 188.126 164.368 188.649L163.64 193H163.12L163.857 188.572C163.939 188.061 163.884 187.646 163.691 187.328C163.498 187.01 163.144 186.851 162.63 186.851C162.286 186.851 161.972 186.93 161.688 187.089C161.404 187.249 161.168 187.467 160.981 187.746C160.793 188.024 160.671 188.344 160.614 188.705L159.898 193H159.378ZM172.074 193.136C171.483 193.136 170.993 192.99 170.604 192.697C170.215 192.405 169.943 192.004 169.79 191.496C169.637 190.987 169.614 190.408 169.722 189.757C169.83 189.104 170.046 188.521 170.369 188.01C170.693 187.499 171.09 187.095 171.558 186.8C172.027 186.504 172.533 186.357 173.075 186.357C173.442 186.357 173.776 186.43 174.077 186.578C174.381 186.726 174.637 186.937 174.844 187.213C175.051 187.486 175.195 187.817 175.274 188.206C175.354 188.595 175.354 189.033 175.274 189.518L175.215 189.842H170.033L170.114 189.369H174.771C174.851 188.898 174.828 188.472 174.703 188.091C174.578 187.707 174.371 187.403 174.081 187.179C173.794 186.955 173.442 186.842 173.024 186.842C172.598 186.842 172.192 186.966 171.806 187.213C171.422 187.457 171.093 187.784 170.817 188.193C170.544 188.602 170.362 189.053 170.271 189.544L170.22 189.808C170.129 190.371 170.141 190.866 170.254 191.295C170.371 191.722 170.587 192.055 170.902 192.297C171.218 192.536 171.629 192.655 172.138 192.655C172.493 192.655 172.808 192.595 173.084 192.476C173.362 192.354 173.598 192.206 173.791 192.033C173.987 191.859 174.141 191.692 174.252 191.53L174.682 191.722C174.551 191.94 174.364 192.159 174.119 192.378C173.875 192.594 173.581 192.774 173.237 192.919C172.894 193.064 172.506 193.136 172.074 193.136ZM177.025 193.055C176.894 193.055 176.787 193.011 176.705 192.923C176.623 192.832 176.583 192.723 176.586 192.595C176.591 192.47 176.641 192.364 176.735 192.276C176.831 192.187 176.942 192.143 177.067 192.143C177.195 192.143 177.302 192.189 177.387 192.28C177.475 192.368 177.515 192.473 177.506 192.595C177.501 192.68 177.475 192.759 177.43 192.83C177.387 192.901 177.329 192.956 177.255 192.996C177.184 193.036 177.107 193.055 177.025 193.055ZM183.737 184.273H184.347L186.396 188.483H186.465L189.912 184.273H190.556L186.618 189.041L185.966 193H185.429L186.085 189.041L183.737 184.273ZM192.082 193.136C191.537 193.136 191.075 192.99 190.697 192.697C190.322 192.402 190.055 191.996 189.896 191.479C189.737 190.962 189.713 190.371 189.824 189.706C189.932 189.058 190.145 188.483 190.463 187.98C190.784 187.474 191.176 187.078 191.639 186.791C192.102 186.501 192.599 186.357 193.131 186.357C193.679 186.357 194.14 186.506 194.515 186.804C194.893 187.099 195.162 187.507 195.321 188.027C195.48 188.544 195.507 189.134 195.402 189.795C195.294 190.44 195.078 191.016 194.754 191.521C194.433 192.024 194.041 192.419 193.578 192.706C193.115 192.993 192.616 193.136 192.082 193.136ZM192.091 192.655C192.557 192.655 192.986 192.524 193.378 192.263C193.77 192.001 194.098 191.648 194.362 191.202C194.629 190.756 194.807 190.257 194.895 189.706C194.983 189.172 194.97 188.689 194.856 188.257C194.743 187.822 194.54 187.479 194.247 187.226C193.954 186.97 193.584 186.842 193.135 186.842C192.672 186.842 192.243 186.974 191.848 187.239C191.456 187.503 191.126 187.858 190.859 188.304C190.592 188.75 190.415 189.247 190.327 189.795C190.236 190.327 190.247 190.81 190.361 191.244C190.477 191.676 190.682 192.02 190.974 192.276C191.27 192.528 191.642 192.655 192.091 192.655ZM201.237 190.678L201.94 186.455H202.46L201.369 193H200.849L201.028 191.939H200.981C200.776 192.277 200.484 192.553 200.103 192.766C199.722 192.979 199.299 193.085 198.833 193.085C198.404 193.085 198.041 192.991 197.742 192.804C197.444 192.616 197.23 192.351 197.099 192.007C196.971 191.661 196.947 191.249 197.026 190.771L197.747 186.455H198.267L197.551 190.75C197.463 191.295 197.556 191.737 197.832 192.075C198.107 192.411 198.508 192.578 199.034 192.578C199.374 192.578 199.7 192.501 200.009 192.348C200.322 192.195 200.588 191.976 200.806 191.692C201.028 191.405 201.171 191.067 201.237 190.678ZM203.523 193L204.614 186.455H205.121L204.95 187.477H204.997C205.191 187.142 205.475 186.874 205.85 186.672C206.225 186.467 206.628 186.365 207.06 186.365C207.108 186.365 207.154 186.365 207.196 186.365C207.239 186.365 207.281 186.366 207.324 186.369L207.235 186.893C207.2 186.891 207.159 186.886 207.111 186.881C207.066 186.872 207.009 186.868 206.941 186.868C206.577 186.868 206.24 186.946 205.931 187.102C205.621 187.259 205.362 187.474 205.155 187.75C204.948 188.023 204.816 188.335 204.759 188.688L204.043 193H203.523ZM212.62 193L211.67 184.273H212.224L213.029 192.178H213.08L216.502 184.273H217.15L217.934 192.178H217.985L221.428 184.273H221.991L218.143 193H217.516L216.706 185.146H216.66L213.233 193H212.62ZM221.947 193L223.038 186.455H223.553L222.463 193H221.947ZM223.541 185.291C223.419 185.291 223.316 185.25 223.234 185.168C223.154 185.082 223.12 184.979 223.132 184.857C223.137 184.754 223.183 184.665 223.268 184.588C223.353 184.511 223.451 184.473 223.562 184.473C223.684 184.473 223.785 184.516 223.865 184.601C223.944 184.683 223.98 184.784 223.971 184.903C223.963 185.009 223.916 185.099 223.83 185.176C223.748 185.253 223.651 185.291 223.541 185.291ZM225.863 188.756L225.16 193H224.64L225.731 186.455H226.238L226.068 187.49H226.119C226.323 187.152 226.613 186.881 226.988 186.676C227.363 186.472 227.784 186.369 228.249 186.369C228.687 186.369 229.058 186.463 229.362 186.651C229.666 186.838 229.883 187.105 230.014 187.452C230.144 187.795 230.17 188.206 230.09 188.683L229.37 193H228.85L229.566 188.705C229.657 188.148 229.569 187.7 229.302 187.362C229.038 187.021 228.634 186.851 228.092 186.851C227.725 186.851 227.384 186.93 227.069 187.089C226.757 187.249 226.494 187.472 226.281 187.759C226.068 188.043 225.928 188.375 225.863 188.756ZM232.068 193.055C231.937 193.055 231.83 193.011 231.748 192.923C231.666 192.832 231.626 192.723 231.629 192.595C231.634 192.47 231.684 192.364 231.778 192.276C231.874 192.187 231.985 192.143 232.11 192.143C232.238 192.143 232.345 192.189 232.43 192.28C232.518 192.368 232.558 192.473 232.549 192.595C232.544 192.68 232.518 192.759 232.472 192.83C232.43 192.901 232.372 192.956 232.298 192.996C232.227 193.036 232.15 193.055 232.068 193.055Z" fill="#3C520A"/>
</svg>
