<?xml version="1.0" standalone="no"?>
<!DOCTYPE svg PUBLIC "-//W3C//DTD SVG 20010904//EN"
 "http://www.w3.org/TR/2001/REC-SVG-20010904/DTD/svg10.dtd">
<svg version="1.0" xmlns="http://www.w3.org/2000/svg"
 width="500.000000pt" height="500.000000pt" viewBox="0 0 500.000000 500.000000"
 preserveAspectRatio="xMidYMid meet">

<g transform="translate(0.000000,500.000000) scale(0.100000,-0.100000)"
fill="#000000" stroke="none">
<path d="M2385 3490 c-211 -24 -413 -120 -573 -274 -144 -139 -246 -319 -288
-512 -23 -106 -23 -302 0 -409 65 -301 283 -573 561 -700 261 -119 563 -120
823 -3 209 93 407 291 502 501 92 204 110 457 49 677 -95 345 -403 633 -749
703 -97 20 -237 27 -325 17z m189 -455 c145 -38 272 -161 318 -307 24 -81 23
-110 -7 -138 -14 -13 -25 -28 -25 -33 0 -5 16 -36 36 -68 19 -32 33 -63 30
-68 -4 -5 -20 -13 -37 -16 -31 -7 -32 -13 -15 -56 5 -11 -1 -19 -20 -27 -19
-9 -24 -17 -19 -30 32 -79 27 -117 -17 -127 -13 -3 -99 12 -193 34 -150 34
-197 40 -182 24 3 -2 34 -11 68 -19 35 -8 69 -16 75 -18 11 -4 -2 -91 -31
-213 -5 -23 -8 -23 -164 -23 l-158 0 -6 93 c-8 117 -43 246 -102 378 -90 199
-74 359 50 497 99 109 253 155 399 117z"/>
<path d="M2420 2940 c0 -20 -5 -30 -15 -30 -9 0 -30 -7 -46 -16 -28 -14 -32
-14 -48 0 -24 22 -33 20 -66 -14 -28 -29 -28 -30 -10 -50 17 -19 17 -21 -2
-67 -15 -39 -25 -49 -46 -51 -25 -3 -27 -7 -27 -48 0 -41 2 -44 28 -44 22 0
30 -7 45 -43 21 -52 21 -56 0 -79 -16 -18 -15 -20 15 -51 l32 -32 21 21 21 21
49 -20 c42 -18 49 -25 49 -49 0 -27 2 -28 45 -28 42 0 45 2 45 28 0 23 8 30
49 48 l49 22 21 -21 21 -21 30 29 c34 32 36 42 15 65 -12 14 -12 21 3 63 15
41 21 47 44 47 26 0 28 3 28 44 0 41 -2 45 -26 48 -20 2 -30 14 -46 51 -20 46
-20 48 -2 68 17 19 17 21 -14 51 -30 31 -32 31 -51 14 -20 -18 -22 -18 -68 2
-37 16 -49 26 -51 46 -3 24 -7 26 -48 26 -42 0 -44 -1 -44 -30z m70 -10 c0
-18 5 -30 13 -30 8 0 34 -11 60 -23 l46 -24 20 21 c20 19 21 19 41 1 l20 -18
-21 -23 c-17 -18 -19 -26 -10 -37 6 -8 17 -32 25 -53 10 -31 19 -40 42 -44 23
-4 29 -10 29 -30 0 -19 -6 -26 -28 -30 -22 -4 -32 -13 -41 -40 -7 -19 -17 -44
-23 -55 -10 -16 -8 -24 8 -41 19 -20 19 -21 -1 -39 -18 -17 -21 -17 -38 -2
-17 15 -22 15 -77 -8 -49 -19 -61 -29 -63 -49 -3 -20 -9 -26 -28 -26 -19 0
-24 5 -24 25 0 16 -7 28 -17 32 -10 3 -37 14 -61 25 -41 19 -44 19 -62 3 -16
-15 -22 -15 -35 -5 -16 14 -20 40 -6 40 19 0 19 30 1 67 -11 21 -21 46 -24 56
-3 10 -15 17 -31 17 -21 0 -25 5 -25 30 0 27 3 30 30 30 22 0 30 5 30 18 0 9
9 35 21 56 18 35 19 40 5 55 -20 22 -20 35 0 51 13 11 18 10 35 -7 l20 -20 46
24 c26 12 52 23 60 23 8 0 13 12 13 30 0 25 4 30 25 30 21 0 25 -5 25 -30z"/>
<path d="M2381 2824 c-75 -39 -113 -159 -74 -233 38 -73 118 -112 198 -97 43
8 103 59 121 103 31 74 5 169 -58 214 -43 31 -138 37 -187 13z m164 -23 c101
-57 100 -210 -1 -268 -134 -77 -287 69 -216 206 41 81 135 108 217 62z"/>
</g>
</svg>
